<svg width="128" height="128" viewBox="0 0 128 128" fill="none" xmlns="http://www.w3.org/2000/svg">
<g clip-path="url(#clip0_56_5)">
<rect width="128" height="128" fill="#6A6971"/>
<path d="M39.8795 81.25V46.75L65.0832 64L39.8795 81.25ZM68.9645 81.25V46.75L94.1688 64L68.9645 81.25Z" fill="#E3E3E3"/>
<rect x="73.6688" y="20" width="41" height="33" rx="6" fill="#A78BFA"/>
<path d="M81.22 45V42.7159L87.2796 36.7756C87.8592 36.1903 88.3421 35.6705 88.7285 35.2159C89.1148 34.7614 89.4046 34.321 89.5978 33.8949C89.791 33.4687 89.8876 33.0142 89.8876 32.5312C89.8876 31.9801 89.7626 31.5085 89.5126 31.1165C89.2626 30.7188 88.9188 30.4119 88.4813 30.196C88.0438 29.9801 87.5467 29.8722 86.9898 29.8722C86.416 29.8722 85.9131 29.9915 85.4813 30.2301C85.0495 30.4631 84.7143 30.7955 84.4756 31.2273C84.2427 31.6591 84.1262 32.1733 84.1262 32.7699H81.1177C81.1177 31.6619 81.3705 30.6989 81.8762 29.8807C82.3819 29.0625 83.0779 28.429 83.9643 27.9801C84.8563 27.5312 85.8791 27.3068 87.0325 27.3068C88.2029 27.3068 89.2313 27.5256 90.1177 27.9631C91.0041 28.4006 91.6916 29 92.1802 29.7614C92.6745 30.5227 92.9217 31.392 92.9217 32.3693C92.9217 33.0227 92.7967 33.6648 92.5467 34.2955C92.2967 34.9261 91.8563 35.625 91.2256 36.392C90.6006 37.1591 89.7228 38.0881 88.5921 39.179L85.5836 42.2386V42.358H93.1859V45H81.22ZM98.683 31.9091L101.325 36.7415L104.01 31.9091H107.274L103.328 38.4545L107.342 45H104.095L101.325 40.2869L98.5808 45H95.308L99.2967 38.4545L95.4103 31.9091H98.683Z" fill="black"/>
</g>
<defs>
<clipPath id="clip0_56_5">
<rect width="128" height="128" rx="24" fill="white"/>
</clipPath>
</defs>
</svg>
